<mxfile host="app.diagrams.net" modified="2023-07-11T07:54:45.628Z" agent="Mozilla/5.0 (Windows NT 10.0; WOW64) AppleWebKit/537.36 (KHTML, like Gecko) Chrome/112.0.0.0 YaBrowser/23.5.4.672 Yowser/2.5 Safari/537.36" etag="P8mSw1S7NUVJmhC29nJO" version="21.5.2" type="device">
  <diagram name="Страница 1" id="tBR0ryUB8eQRnVyb28r9">
    <mxGraphModel dx="874" dy="479" grid="1" gridSize="10" guides="1" tooltips="1" connect="1" arrows="1" fold="1" page="1" pageScale="1" pageWidth="827" pageHeight="1169" math="0" shadow="0">
      <root>
        <mxCell id="0" />
        <mxCell id="1" parent="0" />
        <mxCell id="lcAOzKvOhqNa1jtn2beT-1" value="&lt;font style=&quot;font-size: 16px;&quot;&gt;&lt;b&gt;Start&lt;/b&gt;&lt;/font&gt;" style="ellipse;whiteSpace=wrap;html=1;" vertex="1" parent="1">
          <mxGeometry x="90" width="120" height="80" as="geometry" />
        </mxCell>
        <mxCell id="lcAOzKvOhqNa1jtn2beT-10" value="" style="edgeStyle=orthogonalEdgeStyle;rounded=0;orthogonalLoop=1;jettySize=auto;html=1;exitX=0.5;exitY=1;exitDx=0;exitDy=0;" edge="1" parent="1">
          <mxGeometry relative="1" as="geometry">
            <mxPoint x="149.5" y="80" as="sourcePoint" />
            <mxPoint x="149.5" y="270" as="targetPoint" />
          </mxGeometry>
        </mxCell>
        <mxCell id="lcAOzKvOhqNa1jtn2beT-2" value="инициализация&amp;nbsp;&lt;br&gt;массива А" style="rounded=0;whiteSpace=wrap;html=1;" vertex="1" parent="1">
          <mxGeometry x="90" y="100" width="120" height="60" as="geometry" />
        </mxCell>
        <mxCell id="lcAOzKvOhqNa1jtn2beT-3" value="инициализация&amp;nbsp;&lt;br&gt;массива В" style="rounded=0;whiteSpace=wrap;html=1;" vertex="1" parent="1">
          <mxGeometry x="90" y="180" width="120" height="60" as="geometry" />
        </mxCell>
        <mxCell id="lcAOzKvOhqNa1jtn2beT-17" value="No" style="edgeStyle=orthogonalEdgeStyle;rounded=0;orthogonalLoop=1;jettySize=auto;html=1;" edge="1" parent="1" source="lcAOzKvOhqNa1jtn2beT-5" target="lcAOzKvOhqNa1jtn2beT-7">
          <mxGeometry relative="1" as="geometry" />
        </mxCell>
        <mxCell id="lcAOzKvOhqNa1jtn2beT-20" value="" style="edgeStyle=orthogonalEdgeStyle;rounded=0;orthogonalLoop=1;jettySize=auto;html=1;entryX=0.5;entryY=0;entryDx=0;entryDy=0;entryPerimeter=0;" edge="1" parent="1" source="lcAOzKvOhqNa1jtn2beT-5" target="lcAOzKvOhqNa1jtn2beT-22">
          <mxGeometry relative="1" as="geometry">
            <mxPoint x="370" y="330" as="targetPoint" />
            <Array as="points">
              <mxPoint x="370" y="310" />
            </Array>
          </mxGeometry>
        </mxCell>
        <mxCell id="lcAOzKvOhqNa1jtn2beT-21" value="Yes" style="edgeLabel;html=1;align=center;verticalAlign=middle;resizable=0;points=[];" vertex="1" connectable="0" parent="lcAOzKvOhqNa1jtn2beT-20">
          <mxGeometry x="-0.125" y="2" relative="1" as="geometry">
            <mxPoint as="offset" />
          </mxGeometry>
        </mxCell>
        <mxCell id="lcAOzKvOhqNa1jtn2beT-5" value="пока не достигнут&lt;br&gt;конец массива" style="shape=hexagon;perimeter=hexagonPerimeter2;whiteSpace=wrap;html=1;fixedSize=1;" vertex="1" parent="1">
          <mxGeometry x="90" y="270" width="120" height="80" as="geometry" />
        </mxCell>
        <mxCell id="lcAOzKvOhqNa1jtn2beT-18" style="edgeStyle=orthogonalEdgeStyle;rounded=0;orthogonalLoop=1;jettySize=auto;html=1;exitX=0;exitY=0.5;exitDx=0;exitDy=0;entryX=0;entryY=0.5;entryDx=0;entryDy=0;" edge="1" parent="1" source="lcAOzKvOhqNa1jtn2beT-7" target="lcAOzKvOhqNa1jtn2beT-5">
          <mxGeometry relative="1" as="geometry">
            <mxPoint x="65" y="420" as="sourcePoint" />
            <mxPoint x="-110" y="240" as="targetPoint" />
            <Array as="points">
              <mxPoint x="30" y="420" />
              <mxPoint x="30" y="310" />
            </Array>
          </mxGeometry>
        </mxCell>
        <mxCell id="lcAOzKvOhqNa1jtn2beT-7" value="Заполнение массива А пользователем" style="shape=parallelogram;perimeter=parallelogramPerimeter;whiteSpace=wrap;html=1;fixedSize=1;" vertex="1" parent="1">
          <mxGeometry x="65" y="390" width="170" height="60" as="geometry" />
        </mxCell>
        <mxCell id="lcAOzKvOhqNa1jtn2beT-35" value="" style="edgeStyle=orthogonalEdgeStyle;rounded=0;orthogonalLoop=1;jettySize=auto;html=1;" edge="1" parent="1" source="lcAOzKvOhqNa1jtn2beT-22" target="lcAOzKvOhqNa1jtn2beT-34">
          <mxGeometry relative="1" as="geometry" />
        </mxCell>
        <mxCell id="lcAOzKvOhqNa1jtn2beT-36" value="Yes" style="edgeLabel;html=1;align=center;verticalAlign=middle;resizable=0;points=[];" vertex="1" connectable="0" parent="lcAOzKvOhqNa1jtn2beT-35">
          <mxGeometry x="-0.325" relative="1" as="geometry">
            <mxPoint as="offset" />
          </mxGeometry>
        </mxCell>
        <mxCell id="lcAOzKvOhqNa1jtn2beT-22" value="пока не достигнут&lt;br style=&quot;border-color: var(--border-color);&quot;&gt;конец массива" style="shape=hexagon;perimeter=hexagonPerimeter2;whiteSpace=wrap;html=1;fixedSize=1;" vertex="1" parent="1">
          <mxGeometry x="310" y="340" width="120" height="80" as="geometry" />
        </mxCell>
        <mxCell id="lcAOzKvOhqNa1jtn2beT-24" value="" style="edgeStyle=orthogonalEdgeStyle;rounded=0;orthogonalLoop=1;jettySize=auto;html=1;exitX=0.5;exitY=1;exitDx=0;exitDy=0;" edge="1" parent="1">
          <mxGeometry relative="1" as="geometry">
            <mxPoint x="369.5" y="420" as="sourcePoint" />
            <mxPoint x="370" y="450" as="targetPoint" />
          </mxGeometry>
        </mxCell>
        <mxCell id="lcAOzKvOhqNa1jtn2beT-37" value="No" style="edgeLabel;html=1;align=center;verticalAlign=middle;resizable=0;points=[];" vertex="1" connectable="0" parent="lcAOzKvOhqNa1jtn2beT-24">
          <mxGeometry x="-0.1364" y="-3" relative="1" as="geometry">
            <mxPoint as="offset" />
          </mxGeometry>
        </mxCell>
        <mxCell id="lcAOzKvOhqNa1jtn2beT-27" value="" style="edgeStyle=orthogonalEdgeStyle;rounded=0;orthogonalLoop=1;jettySize=auto;html=1;" edge="1" parent="1" source="lcAOzKvOhqNa1jtn2beT-25" target="lcAOzKvOhqNa1jtn2beT-26">
          <mxGeometry relative="1" as="geometry" />
        </mxCell>
        <mxCell id="lcAOzKvOhqNa1jtn2beT-28" value="Yes" style="edgeLabel;html=1;align=center;verticalAlign=middle;resizable=0;points=[];" vertex="1" connectable="0" parent="lcAOzKvOhqNa1jtn2beT-27">
          <mxGeometry x="0.36" y="-1" relative="1" as="geometry">
            <mxPoint as="offset" />
          </mxGeometry>
        </mxCell>
        <mxCell id="lcAOzKvOhqNa1jtn2beT-25" value="Если А[n] &amp;lt;=3&amp;nbsp;" style="rhombus;whiteSpace=wrap;html=1;" vertex="1" parent="1">
          <mxGeometry x="300" y="450" width="140" height="80" as="geometry" />
        </mxCell>
        <mxCell id="lcAOzKvOhqNa1jtn2beT-26" value="B[i] = A[n]" style="whiteSpace=wrap;html=1;" vertex="1" parent="1">
          <mxGeometry x="470" y="460" width="120" height="60" as="geometry" />
        </mxCell>
        <mxCell id="lcAOzKvOhqNa1jtn2beT-29" value="" style="endArrow=classic;html=1;rounded=0;exitX=0.5;exitY=1;exitDx=0;exitDy=0;entryX=0;entryY=0.5;entryDx=0;entryDy=0;" edge="1" parent="1" source="lcAOzKvOhqNa1jtn2beT-26" target="lcAOzKvOhqNa1jtn2beT-22">
          <mxGeometry width="50" height="50" relative="1" as="geometry">
            <mxPoint x="600" y="570" as="sourcePoint" />
            <mxPoint x="300" y="380" as="targetPoint" />
            <Array as="points">
              <mxPoint x="530" y="550" />
              <mxPoint x="530" y="560" />
              <mxPoint x="270" y="560" />
              <mxPoint x="270" y="450" />
              <mxPoint x="270" y="380" />
            </Array>
          </mxGeometry>
        </mxCell>
        <mxCell id="lcAOzKvOhqNa1jtn2beT-31" value="" style="endArrow=none;html=1;rounded=0;entryX=0;entryY=0.5;entryDx=0;entryDy=0;" edge="1" parent="1" target="lcAOzKvOhqNa1jtn2beT-25">
          <mxGeometry width="50" height="50" relative="1" as="geometry">
            <mxPoint x="280" y="490" as="sourcePoint" />
            <mxPoint x="440" y="330" as="targetPoint" />
            <Array as="points">
              <mxPoint x="270" y="490" />
              <mxPoint x="280" y="490" />
            </Array>
          </mxGeometry>
        </mxCell>
        <mxCell id="lcAOzKvOhqNa1jtn2beT-33" value="No" style="edgeLabel;html=1;align=center;verticalAlign=middle;resizable=0;points=[];" vertex="1" connectable="0" parent="lcAOzKvOhqNa1jtn2beT-31">
          <mxGeometry x="0.25" relative="1" as="geometry">
            <mxPoint as="offset" />
          </mxGeometry>
        </mxCell>
        <mxCell id="lcAOzKvOhqNa1jtn2beT-39" value="" style="edgeStyle=orthogonalEdgeStyle;rounded=0;orthogonalLoop=1;jettySize=auto;html=1;" edge="1" parent="1" source="lcAOzKvOhqNa1jtn2beT-34" target="lcAOzKvOhqNa1jtn2beT-38">
          <mxGeometry relative="1" as="geometry" />
        </mxCell>
        <mxCell id="lcAOzKvOhqNa1jtn2beT-40" value="No" style="edgeLabel;html=1;align=center;verticalAlign=middle;resizable=0;points=[];" vertex="1" connectable="0" parent="lcAOzKvOhqNa1jtn2beT-39">
          <mxGeometry x="-0.1" y="2" relative="1" as="geometry">
            <mxPoint as="offset" />
          </mxGeometry>
        </mxCell>
        <mxCell id="lcAOzKvOhqNa1jtn2beT-42" value="" style="edgeStyle=orthogonalEdgeStyle;rounded=0;orthogonalLoop=1;jettySize=auto;html=1;" edge="1" parent="1" source="lcAOzKvOhqNa1jtn2beT-34" target="lcAOzKvOhqNa1jtn2beT-41">
          <mxGeometry relative="1" as="geometry" />
        </mxCell>
        <mxCell id="lcAOzKvOhqNa1jtn2beT-34" value="пока не достигнут&lt;br style=&quot;border-color: var(--border-color);&quot;&gt;конец массива" style="shape=hexagon;perimeter=hexagonPerimeter2;whiteSpace=wrap;html=1;fixedSize=1;" vertex="1" parent="1">
          <mxGeometry x="600" y="340" width="120" height="80" as="geometry" />
        </mxCell>
        <mxCell id="lcAOzKvOhqNa1jtn2beT-38" value="Вывод массива В" style="shape=document;whiteSpace=wrap;html=1;boundedLbl=1;" vertex="1" parent="1">
          <mxGeometry x="600" y="500" width="120" height="80" as="geometry" />
        </mxCell>
        <mxCell id="lcAOzKvOhqNa1jtn2beT-41" value="&lt;b style=&quot;border-color: var(--border-color); font-size: 16px;&quot;&gt;Finish&lt;/b&gt;" style="ellipse;whiteSpace=wrap;html=1;" vertex="1" parent="1">
          <mxGeometry x="740" y="340" width="80" height="80" as="geometry" />
        </mxCell>
      </root>
    </mxGraphModel>
  </diagram>
</mxfile>
